# xmcd CD database file
#
# Track frame offsets:
#	150
#	14922
#	28982
#	41938
#	54610
#	69096
#	79701
#	92561
#	108251
#	120714
#	138427
#	151550
#	158888
#	170659
#	182666
#	195721
#	213055
#	225629
#	245848
#	262795
#	279645
#
# Disc length: 3983 seconds
#
# Revision: 0
# Processed by: cddbd v1.5.1PL0 Copyright (c) Steve Scherf et al.
# Submitted via: CDex 1.51
#
DISCID=210f8d15
DTITLE=Ikasas Ikuy - The Best of Ikasas Ikuy disk1
DYEAR=2005
DGENRE=Blues
TTITLE0=Takabi-1994
TTITLE1=Azarasi
TTITLE2=Aburabire Aburabire
TTITLE3=Hey ネエチャン
TTITLE4=頭の上には青い空と太陽
TTITLE5=キャンプへ行こうよ
TTITLE6=A-yanke
TTITLE7=ゴムボートブルース
TTITLE8=Siritori
TTITLE9=Sanzu River Fishing
TTITLE10=Johnny"C"Goods
TTITLE11=カワウソ
TTITLE12=カワウソブルース
TTITLE13=私は私よ
TTITLE14=猿が木から墜ちた
TTITLE15=君といつまでも
TTITLE16=辻さんに捧ぐ
TTITLE17=大阪へ出てきてから
TTITLE18=Down Town Rhapsody
TTITLE19=ご意見ご希望
TTITLE20=私の青空
EXTD=YEAR: 2005
EXTT0=
EXTT1=
EXTT2=
EXTT3=
EXTT4=
EXTT5=
EXTT6=
EXTT7=
EXTT8=
EXTT9=
EXTT10=
EXTT11=
EXTT12=
EXTT13=
EXTT14=
EXTT15=
EXTT16=
EXTT17=
EXTT18=
EXTT19=
EXTT20=
PLAYORDER=
